<svg id="Capa_1" data-name="Capa 1" xmlns="http://www.w3.org/2000/svg" viewBox="0 0 306.09 77.29"><defs><style>.cls-1{fill:#12100b;}.cls-2{fill:#221e20;}</style></defs><title>Autodesk_certified User_logo</title><g id="ADKPGENK0002-MainLW-RGB-black"><path id="symbol" class="cls-1" d="M47.1,70.38,73.82,53.76H87.68a.81.81,0,0,1,.81.81.71.71,0,0,1-.38.68L75,63.12a2.67,2.67,0,0,0-1.15,2.3v5H90.49V41.56a1,1,0,0,0-1.06-1H73.52L46.87,57.08v13.3Z" transform="translate(-46.87 -39.72)"/></g><polygon class="cls-1" points="219.27 30.66 243.29 30.66 243.29 24.2 226.88 24.2 226.88 18.8 240.08 18.8 240.08 12.31 226.88 12.31 226.88 7.27 243.29 7.27 243.29 0.82 219.27 0.82 219.27 30.66"/><path class="cls-1" d="M115.16,40.54,103.71,70.38h7.87l2-5.6h12.78l2,5.6h8.13l-11.6-29.84Zm.69,17.9L120,46.74l4.11,11.7Z" transform="translate(-46.87 -39.72)"/><polygon class="cls-1" points="122.23 7.27 131.85 7.27 131.85 30.66 139.46 30.66 139.46 7.27 149.04 7.27 149.04 0.82 122.23 0.82 122.23 7.27"/><path class="cls-1" d="M158,59c0,3.88-2.39,5.45-6.45,5.45S145,62.77,145,59V40.54h-7.61V59.82c0,8.62,7.68,11.3,14.14,11.3s14.06-2.68,14.06-11.3V40.54H158Z" transform="translate(-46.87 -39.72)"/><polygon class="cls-1" points="306.09 0.82 297.03 0.82 286.18 12.94 286.18 0.82 278.57 0.82 278.61 30.66 286.18 30.66 286.18 19.32 296.47 30.66 306.09 30.66 292.22 15.93 306.09 0.82"/><path class="cls-1" d="M248.24,40.54h-14V70.38h14c10.7,0,13.65-4,13.65-15.15C261.89,44.75,259.05,40.54,248.24,40.54Zm-.3,23.38h-6V47h6c4.77,0,6.19,1.31,6.19,8.24C254.13,61.57,252.52,63.92,247.94,63.92Z" transform="translate(-46.87 -39.72)"/><path class="cls-1" d="M313.17,52.81,306.23,52c-4.06-.45-5.07-1.46-5.07-2.84s2.09-2.91,6.15-2.91,6,1.46,6.34,3.66h7.46c-.37-6.31-5.67-10.22-13.39-10.22-9.17,0-13.8,3.65-13.8,10.11,0,5.25,3.06,7.72,9.4,8.39l7.05.74c2.69.3,3.92,1.35,3.92,2.69,0,1.53-1.79,2.91-6.12,2.91-5,0-7-1.27-7.35-3.81h-7.31c.34,6.87,4.81,10.37,14.4,10.37,8.76,0,13.65-3.84,13.65-9.62C321.56,56.46,318.65,53.44,313.17,52.81Z" transform="translate(-46.87 -39.72)"/><path class="cls-1" d="M213.63,39.72c-10.86,0-16.49,6.67-16.49,15.66s5.63,15.74,16.49,15.74,16.52-6.71,16.52-15.74S224.52,39.72,213.63,39.72Zm0,24.69c-5.64,0-8.73-3.43-8.73-9s3.09-9,8.73-9,8.72,3.47,8.72,9S219.29,64.41,213.63,64.41Z" transform="translate(-46.87 -39.72)"/><path class="cls-1" d="M218,99.8a4.81,4.81,0,0,1-2-2,6.09,6.09,0,0,1-.69-3V91a6.54,6.54,0,0,1,.72-3.15,4.92,4.92,0,0,1,2.07-2.07,6.65,6.65,0,0,1,3.19-.73,6.93,6.93,0,0,1,2.54.42,7.91,7.91,0,0,1,2,1.2l-1.36,1.54a5.92,5.92,0,0,0-1.46-.81,4.61,4.61,0,0,0-1.67-.28,3.22,3.22,0,0,0-2.51,1,4,4,0,0,0-.88,2.76v4a3.87,3.87,0,0,0,.82,2.68,3.14,3.14,0,0,0,2.44.9,5.17,5.17,0,0,0,1.81-.29,6.48,6.48,0,0,0,1.55-.79l1.13,1.59a7.94,7.94,0,0,1-2,1.11,7,7,0,0,1-2.54.45A6.77,6.77,0,0,1,218,99.8Z" transform="translate(-46.87 -39.72)"/><path class="cls-1" d="M237,95.38h-7.31a3.29,3.29,0,0,0,.77,2.37,3,3,0,0,0,2.23.76,4.43,4.43,0,0,0,1.53-.25,9.68,9.68,0,0,0,1.5-.69l.93,1.58a7.3,7.3,0,0,1-4.13,1.34,5.85,5.85,0,0,1-2.91-.69,4.78,4.78,0,0,1-1.86-1.9,5.85,5.85,0,0,1-.64-2.76V94a6.09,6.09,0,0,1,.62-2.76,4.71,4.71,0,0,1,1.77-1.93,5.12,5.12,0,0,1,2.68-.7A4.61,4.61,0,0,1,235.79,90a5.92,5.92,0,0,1,1.28,4.1A11.87,11.87,0,0,1,237,95.38Zm-2.28-1.84a3.48,3.48,0,0,0-.64-2.24,2.29,2.29,0,0,0-1.88-.78,2.2,2.2,0,0,0-1.84.79,3.86,3.86,0,0,0-.67,2.34h5Z" transform="translate(-46.87 -39.72)"/><path class="cls-1" d="M246.31,88.84l-.47,2.45a3,3,0,0,0-.68-.07,3.11,3.11,0,0,0-1.78.52,3.5,3.5,0,0,0-1.21,1.74v6.73h-2.64V88.88h1.92l.43,1.79a3.25,3.25,0,0,1,3.06-2A4.37,4.37,0,0,1,246.31,88.84Z" transform="translate(-46.87 -39.72)"/><path class="cls-1" d="M254.83,100.21a6.87,6.87,0,0,1-2,.28,3.78,3.78,0,0,1-2.54-.76,2.89,2.89,0,0,1-.89-2.33V90.84H247.7v-2h1.79l.21-2.79h2.37v2.79h2.45v2h-2.45v6.41a1.16,1.16,0,0,0,.34.92,1.52,1.52,0,0,0,1,.29,6.27,6.27,0,0,0,1.11-.1Z" transform="translate(-46.87 -39.72)"/><path class="cls-1" d="M260.6,100.21H258V90.84h-1.71v-2h4.35ZM258,86.65a1.48,1.48,0,0,1-.46-1.11,1.54,1.54,0,0,1,.46-1.13,1.56,1.56,0,0,1,1.13-.47,1.54,1.54,0,0,1,1.13.46,1.52,1.52,0,0,1,.47,1.14,1.49,1.49,0,0,1-.47,1.11,1.54,1.54,0,0,1-1.13.46A1.56,1.56,0,0,1,258,86.65Z" transform="translate(-46.87 -39.72)"/><path class="cls-1" d="M267.35,86.48a1.4,1.4,0,0,0-.37,1.1v1.3h2.71v2H267v9.37h-2.64V90.84h-1.51v-2h1.51V87.79a3.52,3.52,0,0,1,1-2.71,4,4,0,0,1,2.84-.91,7.1,7.1,0,0,1,2.09.28L270,86.32a6.73,6.73,0,0,0-1.45-.17A1.7,1.7,0,0,0,267.35,86.48Z" transform="translate(-46.87 -39.72)"/><path class="cls-1" d="M275.48,100.21h-2.64V90.84h-1.71v-2h4.35Zm-2.56-13.56a1.49,1.49,0,0,1-.47-1.11,1.55,1.55,0,0,1,.47-1.13,1.56,1.56,0,0,1,1.13-.47,1.54,1.54,0,0,1,1.13.46,1.52,1.52,0,0,1,.47,1.14,1.49,1.49,0,0,1-.47,1.11,1.54,1.54,0,0,1-1.13.46A1.56,1.56,0,0,1,272.92,86.65Z" transform="translate(-46.87 -39.72)"/><path class="cls-1" d="M287.81,95.38h-7.3a3.29,3.29,0,0,0,.77,2.37,3,3,0,0,0,2.23.76,4.37,4.37,0,0,0,1.52-.25,9.34,9.34,0,0,0,1.51-.69l.93,1.58a7.3,7.3,0,0,1-4.13,1.34,5.85,5.85,0,0,1-2.91-.69,4.78,4.78,0,0,1-1.86-1.9,5.74,5.74,0,0,1-.64-2.76V94a6.09,6.09,0,0,1,.62-2.76,4.71,4.71,0,0,1,1.77-1.93,5.1,5.1,0,0,1,2.68-.7A4.61,4.61,0,0,1,286.62,90a5.92,5.92,0,0,1,1.28,4.1A9.86,9.86,0,0,1,287.81,95.38Zm-2.28-1.84a3.48,3.48,0,0,0-.63-2.24,2.3,2.3,0,0,0-1.88-.78,2.2,2.2,0,0,0-1.84.79,3.86,3.86,0,0,0-.67,2.34h5Z" transform="translate(-46.87 -39.72)"/><path class="cls-1" d="M299.79,84.45v15.76h-2.06L297.45,99a3.87,3.87,0,0,1-3.11,1.51,4.16,4.16,0,0,1-2.33-.66A4.47,4.47,0,0,1,290.42,98a6.53,6.53,0,0,1-.57-2.81V94a6.34,6.34,0,0,1,.58-2.76,4.73,4.73,0,0,1,1.63-1.92,4.28,4.28,0,0,1,2.41-.69,3.89,3.89,0,0,1,2.68,1V84.45Zm-3.67,13.72a3.65,3.65,0,0,0,1-1V91.52a3,3,0,0,0-1-.67,2.92,2.92,0,0,0-1.27-.27,2.1,2.1,0,0,0-1.79.86,4,4,0,0,0-.64,2.45v1.29a4.29,4.29,0,0,0,.6,2.5,2,2,0,0,0,1.72.83A2.55,2.55,0,0,0,296.12,98.17Z" transform="translate(-46.87 -39.72)"/><path class="cls-1" d="M320.39,95.4a4.87,4.87,0,0,1-1.46,3.68,5.93,5.93,0,0,1-4.29,1.41,6.87,6.87,0,0,1-3.16-.66A4.55,4.55,0,0,1,309.54,98a5.27,5.27,0,0,1-.65-2.62V85.3h2.7V95.4a3.15,3.15,0,0,0,.74,2.22,3,3,0,0,0,2.31.8,3,3,0,0,0,2.32-.8,3.11,3.11,0,0,0,.75-2.22V85.3h2.68Z" transform="translate(-46.87 -39.72)"/><path class="cls-1" d="M324.47,100.08a6.17,6.17,0,0,1-2.06-1.15l1.25-1.51a5.85,5.85,0,0,0,1.52.83,4.78,4.78,0,0,0,1.68.28c1.43,0,2.15-.41,2.15-1.24v-.17a1.11,1.11,0,0,0-.38-.88,4.9,4.9,0,0,0-1.52-.71L325.69,95a5.35,5.35,0,0,1-2.06-1.19,2.38,2.38,0,0,1-.67-1.73v-.47a2.47,2.47,0,0,1,.56-1.59A3.59,3.59,0,0,1,325.05,89a5.73,5.73,0,0,1,2.21-.4,7.64,7.64,0,0,1,2.34.37A5.76,5.76,0,0,1,331.52,90l-1.21,1.45a5.45,5.45,0,0,0-1.48-.73,5.7,5.7,0,0,0-1.48-.19,2.25,2.25,0,0,0-1.3.31.93.93,0,0,0-.45.78v.17a1,1,0,0,0,.39.79,5.28,5.28,0,0,0,1.44.7l1.43.49A5.87,5.87,0,0,1,330.93,95a2.47,2.47,0,0,1,.7,1.87v.47a2.65,2.65,0,0,1-1.3,2.36,5.85,5.85,0,0,1-3.24.84A8.13,8.13,0,0,1,324.47,100.08Z" transform="translate(-46.87 -39.72)"/><path class="cls-1" d="M343.39,95.38h-7.31a3.33,3.33,0,0,0,.77,2.37,3,3,0,0,0,2.24.76,4.37,4.37,0,0,0,1.52-.25,9.68,9.68,0,0,0,1.5-.69l.94,1.58a6.83,6.83,0,0,1-1.87.95,6.69,6.69,0,0,1-2.27.39,5.79,5.79,0,0,1-2.9-.69,4.75,4.75,0,0,1-1.87-1.9,5.85,5.85,0,0,1-.64-2.76V94a6.09,6.09,0,0,1,.62-2.76,4.71,4.71,0,0,1,1.77-1.93,5.12,5.12,0,0,1,2.68-.7A4.59,4.59,0,0,1,342.19,90a5.88,5.88,0,0,1,1.28,4.1A11.87,11.87,0,0,1,343.39,95.38Zm-2.28-1.84a3.42,3.42,0,0,0-.64-2.24,2.28,2.28,0,0,0-1.87-.78,2.22,2.22,0,0,0-1.85.79,3.86,3.86,0,0,0-.67,2.34h5Z" transform="translate(-46.87 -39.72)"/><path class="cls-1" d="M352.71,88.84l-.47,2.45a3,3,0,0,0-.68-.07,3.11,3.11,0,0,0-1.78.52,3.42,3.42,0,0,0-1.2,1.74v6.73h-2.65V88.88h1.92l.43,1.79a3.25,3.25,0,0,1,3.06-2A4.37,4.37,0,0,1,352.71,88.84Z" transform="translate(-46.87 -39.72)"/><rect class="cls-2" x="1.2" y="75.07" width="302.78" height="2.21"/></svg>