<svg xmlns="http://www.w3.org/2000/svg" xmlns:xlink="http://www.w3.org/1999/xlink" viewBox="0 0 259.53 136.74"><defs><style>.cls-1{fill:none;}.cls-2{clip-path:url(#clip-path);}.cls-3{fill:#00bceb;}</style><clipPath id="clip-path" transform="translate(0 0)"><rect class="cls-1" width="259.34" height="136.74"/></clipPath></defs><title>cisco</title><g id="Capa_2" data-name="Capa 2"><g id="Capa_1-2" data-name="Capa 1"><g class="cls-2"><path class="cls-3" d="M236.13,113.39c0,12.9-10,23.35-23.82,23.35s-23.81-10.45-23.81-23.35,9.94-23.33,23.81-23.33,23.82,10.46,23.82,23.33m-23.82-11.85a11.86,11.86,0,1,0,11.76,11.85,11.65,11.65,0,0,0-11.76-11.85" transform="translate(0 0)"/><path class="cls-3" d="M176.52,103.77a19.86,19.86,0,0,0-9.57-2.4c-7.36,0-12.46,5.12-12.46,12,0,6.7,4.89,12,12.46,12a20.06,20.06,0,0,0,9.57-2.4v12.11a36.78,36.78,0,0,1-10.36,1.6c-12.8,0-24-8.82-24-23.35,0-13.46,10.16-23.33,24-23.33a35.05,35.05,0,0,1,10.36,1.61Z" transform="translate(0 0)"/><path class="cls-3" d="M127.94,101.1a39.37,39.37,0,0,0-8.9-1.37c-4.56,0-7,1.52-7,3.69,0,2.75,3.34,3.7,5.21,4.3l3.14,1c7.38,2.35,10.75,7.41,10.75,12.9,0,11.32-10,15.13-18.67,15.13a67.67,67.67,0,0,1-12.27-1.23V125.13a42.2,42.2,0,0,0,10.74,1.68c5.66,0,8.26-1.65,8.26-4.21,0-2.28-2.25-3.6-5.07-4.49l-2.43-.78c-6.34-2-11.62-5.73-11.62-13.19,0-8.43,6.31-14.1,16.8-14.1a48.58,48.58,0,0,1,11.09,1.44Z" transform="translate(0 0)"/><rect class="cls-3" x="73.42" y="90.85" width="11.38" height="45.08"/><path class="cls-3" d="M57.78,103.77a19.8,19.8,0,0,0-9.56-2.4c-7.37,0-12.46,5.12-12.46,12,0,6.7,4.88,12,12.46,12a20,20,0,0,0,9.56-2.4v12.11a36.51,36.51,0,0,1-10.37,1.6c-12.79,0-24-8.82-24-23.35,0-13.46,10.16-23.33,24-23.33a34.93,34.93,0,0,1,10.37,1.61Z" transform="translate(0 0)"/><path class="cls-3" d="M258.5,59.89h-9.32a1,1,0,0,1-1-1v-21a1,1,0,0,1,1-1h9.32a1,1,0,0,1,1,1v21a1,1,0,0,1-1,1" transform="translate(0 0)"/><path class="cls-3" d="M227.49,59.89h-9.33a1,1,0,0,1-1-1V22.27a1,1,0,0,1,1-1h9.33a1,1,0,0,1,1,1V58.86a1,1,0,0,1-1,1" transform="translate(0 0)"/><path class="cls-3" d="M196.47,71.13h-9.33a1,1,0,0,1-1-1V1a1,1,0,0,1,1-1h9.33a1,1,0,0,1,1,1V70.11a1,1,0,0,1-1,1" transform="translate(0 0)"/><path class="cls-3" d="M165.45,59.89h-9.33a1,1,0,0,1-1-1V22.27a1,1,0,0,1,1-1h9.33a1,1,0,0,1,1,1V58.86a1,1,0,0,1-1,1" transform="translate(0 0)"/><path class="cls-3" d="M134.43,59.89H125.1a1,1,0,0,1-1-1v-21a1,1,0,0,1,1-1h9.33a1,1,0,0,1,1,1v21a1,1,0,0,1-1,1" transform="translate(0 0)"/><path class="cls-3" d="M103.41,59.89H94.08a1,1,0,0,1-1-1V22.27a1,1,0,0,1,1-1h9.33a1,1,0,0,1,1,1V58.86a1,1,0,0,1-1,1" transform="translate(0 0)"/><path class="cls-3" d="M72.39,71.13H63.07a1,1,0,0,1-1-1V1a1,1,0,0,1,1-1h9.32a1,1,0,0,1,1,1V70.11a1,1,0,0,1-1,1" transform="translate(0 0)"/><path class="cls-3" d="M41.37,59.89H32.05a1,1,0,0,1-1-1V22.27a1,1,0,0,1,1-1h9.32a1,1,0,0,1,1,1V58.86a1,1,0,0,1-1,1" transform="translate(0 0)"/><path class="cls-3" d="M10.35,59.89H1a1,1,0,0,1-1-1v-21a1,1,0,0,1,1-1h9.32a1,1,0,0,1,1,1v21a1,1,0,0,1-1,1" transform="translate(0 0)"/></g></g></g></svg>