<svg xmlns="http://www.w3.org/2000/svg" viewBox="0 0 131.45 87.66"><defs><style>.cls-1{fill:#53575a;}.cls-2{fill:#3dae2b;}</style></defs><title>IC3_logo</title><g id="Capa_2" data-name="Capa 2"><g id="Layer_1" data-name="Layer 1"><path class="cls-1" d="M.15,57.2H4.53c2.78,0,4.14,1.53,4.14,4.36v8.92c0,2.82-1.36,4.36-4.14,4.36H.15Zm2.77,2.52v12.6H4.48c.89,0,1.42-.45,1.42-1.71V61.43c0-1.26-.53-1.71-1.42-1.71Z"/><path class="cls-1" d="M10.43,57.2h2.78V74.84H10.43Z"/><path class="cls-1" d="M19.38,65h3.88v5.6c0,2.82-1.41,4.43-4.13,4.43S15,73.43,15,70.61V61.43C15,58.61,16.41,57,19.13,57s4.13,1.61,4.13,4.43v1.71H20.64V61.25c0-1.25-.55-1.73-1.44-1.73s-1.43.48-1.43,1.73v9.53c0,1.26.55,1.72,1.43,1.72s1.44-.46,1.44-1.72V67.53H19.38Z"/><path class="cls-1" d="M25.05,57.2h2.78V74.84H25.05Z"/><path class="cls-1" d="M29.19,57.2h8.57v2.52h-2.9V74.84H32.09V59.72h-2.9Z"/><path class="cls-1" d="M46.68,74.84h-2.8l-.48-3.2H40l-.48,3.2H37L39.8,57.2h4.05Zm-6.33-5.6H43l-1.33-8.92Z"/><path class="cls-1" d="M48.12,57.2h2.77V72.32h4.56v2.52H48.12Z"/><path class="cls-1" d="M60.88,57.2h2.77V72.32h4.57v2.52H60.88Z"/><path class="cls-1" d="M69.43,57.2H72.2V74.84H69.43Z"/><path class="cls-1" d="M73.41,57.2H82v2.52h-2.9V74.84H76.31V59.72h-2.9Z"/><path class="cls-1" d="M86,64.63h3.81v2.52H86v5.17h4.79v2.52H83.19V57.2h7.56v2.52H86Z"/><path class="cls-1" d="M98,74.84a5.46,5.46,0,0,1-.25-2.17V69.9c0-1.64-.55-2.24-1.81-2.24h-1v7.18H92.16V57.2h4.18c2.87,0,4.11,1.33,4.11,4v1.39c0,1.82-.58,3-1.82,3.58,1.39.58,1.84,1.92,1.84,3.76V72.7a5.16,5.16,0,0,0,.31,2.14Zm-3-15.12v5.42H96c1,0,1.66-.46,1.66-1.87V61.53c0-1.26-.42-1.81-1.41-1.81Z"/><path class="cls-1" d="M111.57,74.84h-2.8l-.47-3.2h-3.41l-.48,3.2h-2.54l2.82-17.64h4.06Zm-6.32-5.6h2.67l-1.34-8.92Z"/><path class="cls-1" d="M120.56,68.26v2.35c0,2.82-1.41,4.43-4.13,4.43s-4.13-1.61-4.13-4.43V61.43c0-2.82,1.41-4.43,4.13-4.43s4.13,1.61,4.13,4.43v1.71h-2.62V61.25c0-1.25-.55-1.73-1.43-1.73s-1.44.48-1.44,1.73v9.53c0,1.26.55,1.72,1.44,1.72s1.43-.46,1.43-1.72V68.26Z"/><path class="cls-1" d="M124.57,69l-3.5-11.79H124l2.12,8,2.11-8h2.65L127.35,69v5.85h-2.78Z"/><path class="cls-1" d="M4.61,83.88v1.31c0,1.57-.79,2.47-2.3,2.47A2.16,2.16,0,0,1,0,85.19V80.07A2.16,2.16,0,0,1,2.31,77.6c1.51,0,2.3.9,2.3,2.47v1H3.15V80c0-.7-.31-1-.8-1s-.8.27-.8,1v5.32c0,.7.31.95.8.95s.8-.25.8-.95V83.88Z"/><path class="cls-1" d="M12.72,81.86h2.12v1.4H12.72v2.88h2.67v1.41H11.17V77.71h4.22v1.4H12.72Z"/><path class="cls-1" d="M25.2,87.55a3.12,3.12,0,0,1-.14-1.21V84.8c0-.92-.31-1.26-1-1.26h-.54v4H22V77.71H24.3c1.6,0,2.29.74,2.29,2.26v.78a2,2,0,0,1-1,2c.77.33,1,1.07,1,2.1v1.52a2.82,2.82,0,0,0,.17,1.19Zm-1.69-8.44v3h.61c.57,0,.93-.25.93-1v-1c0-.71-.24-1-.79-1Z"/><path class="cls-1" d="M32.79,77.71h4.78v1.4H36v8.44H34.41V79.11H32.79Z"/><path class="cls-1" d="M43.87,77.71h1.54v9.84H43.87Z"/><path class="cls-1" d="M53.71,82.08h2v1.41h-2v4.06H52.16V77.71h4.09v1.4H53.71Z"/><path class="cls-1" d="M62.62,77.71h1.54v9.84H62.62Z"/><path class="cls-1" d="M75.39,83.88v1.31c0,1.57-.79,2.47-2.3,2.47a2.16,2.16,0,0,1-2.31-2.47V80.07a2.16,2.16,0,0,1,2.31-2.47c1.51,0,2.3.9,2.3,2.47v1H73.93V80c0-.7-.31-1-.8-1s-.8.27-.8,1v5.32c0,.7.31.95.8.95s.8-.25.8-.95V83.88Z"/><path class="cls-1" d="M87,87.55H85.4l-.27-1.79H83.24L83,87.55H81.55l1.57-9.84h2.27Zm-3.53-3.12h1.49l-.74-5Z"/><path class="cls-1" d="M92.32,77.71h4.77v1.4H95.48v8.44H93.93V79.11H92.32Z"/><path class="cls-1" d="M103.39,77.71h1.55v9.84h-1.55Z"/><path class="cls-1" d="M111.56,80.07a2.35,2.35,0,1,1,4.69,0v5.12a2.35,2.35,0,1,1-4.69,0Zm1.54,5.22c0,.7.31,1,.8,1s.8-.27.8-1V80c0-.7-.3-1-.8-1s-.8.27-.8,1Z"/><path class="cls-1" d="M124.25,80.42v7.13h-1.39V77.71h1.94l1.59,5.89V77.71h1.37v9.84h-1.59Z"/><polygon class="cls-2" points="23.18 15.31 23.18 12.28 27.48 12.28 27.48 0 0.23 0 0.23 12.28 4.53 12.28 4.53 19.33 4.53 30.23 4.53 36.99 0.23 36.99 0.23 49.27 18.23 49.27 23.18 49.27 27.48 49.27 27.48 36.99 23.18 36.99 23.18 16.07 23.18 15.31"/><path class="cls-2" d="M74.81,37.47v-.79H54.88q-5.35,0-5.35-3.27V15.86q0-3.27,5.35-3.27H74.81V11.7c0-4.34,1-7.72,3.12-10A10.59,10.59,0,0,1,79.64.1H49.53a66.74,66.74,0,0,0-9.22.5Q35.15,1.4,32.93,4C31.44,5.69,30.7,8.29,30.7,11.8V37.47q0,5.25,2.23,7.83t7.38,3.37a66.74,66.74,0,0,0,9.22.5H79.89a11,11,0,0,1-2-1.68C75.87,45.19,74.81,41.82,74.81,37.47Z"/><path class="cls-1" d="M131.45,37.57q0,5.35-2.28,7.93t-7.54,3.37a78.47,78.47,0,0,1-9,.4H95.52a51.51,51.51,0,0,1-7.58-.4c-3.56-.53-6.13-1.65-7.68-3.37s-2.33-4.36-2.33-7.93V32.12H95.42c0,2.31.39,3.7,1.19,4.16.46.33,1.91.5,4.36.5H110a4.8,4.8,0,0,0,2.23-.5c.36-.26.54-.89.54-1.88a9.77,9.77,0,0,0-.2-2.68c-.33-.59-1.15-.89-2.47-.89H99.94V18.44H110a3.8,3.8,0,0,0,2.23-.45c.36-.3.54-1,.54-2V14.87c0-1-.18-1.62-.54-1.88a4.67,4.67,0,0,0-2.23-.5,10.12,10.12,0,0,1-2.68.1H101c-2.25,0-3.67.2-4.26.59-.86.53-1.29,1.86-1.29,4H77.93V11.8q0-5.35,2.33-8C81.81,2.07,84.38.93,87.94.4A50.13,50.13,0,0,1,95.52,0h17.09a73.53,73.53,0,0,1,8.92.4q5.35.8,7.64,3.37c1.52,1.72,2.28,4.39,2.28,8v7.43c0,2.12-1.33,3.93-4,5.45a5.26,5.26,0,0,1,4,5.45Z"/></g></g></svg>