<svg xmlns="http://www.w3.org/2000/svg" xmlns:xlink="http://www.w3.org/1999/xlink" viewBox="0 0 259.18 77.9"><defs><style>.cls-1{fill:none;}.cls-2{clip-path:url(#clip-path);}.cls-3{fill:#05bfe0;}.cls-4{fill:#ff610f;}.cls-5{fill:#4f17a8;}</style><clipPath id="clip-path" transform="translate(0 0)"><rect class="cls-1" width="259.18" height="77.9"/></clipPath></defs><title>PMI_logo</title><g id="Capa_2" data-name="Capa 2"><g id="Capa_1-2" data-name="Capa 1"><g class="cls-2"><path class="cls-3" d="M27.42,59.1A9.15,9.15,0,0,1,36.56,50V40.82H0V50A9.14,9.14,0,0,1,9.14,59.1,9.15,9.15,0,0,1,0,68.25v9.14H36.56V68.25a9.15,9.15,0,0,1-9.14-9.15" transform="translate(0 0)"/><path class="cls-4" d="M58,19.44A18.29,18.29,0,0,0,39.66,1.16V37.72A18.29,18.29,0,0,0,58,19.45,18.27,18.27,0,0,0,76.23,37.72V1.16A18.27,18.27,0,0,0,58,19.44" transform="translate(0 0)"/><path d="M25.14,1.21c-.38,0-.76-.05-1.14-.05H0V37.72H6.86V26.3H24a10.88,10.88,0,0,0,1.14-.06,12.57,12.57,0,0,0,0-25M24,19.44H6.86V8H24a5.71,5.71,0,0,1,0,11.42" transform="translate(0 0)"/><polygon class="cls-5" points="39.66 77.39 39.66 67.04 50.01 77.39 39.66 77.39"/><polygon class="cls-5" points="60.52 77.39 39.66 56.53 39.66 46.02 71.03 77.39 60.52 77.39"/><polygon class="cls-5" points="76.23 40.82 76.23 51.06 65.99 40.82 76.23 40.82"/><polygon class="cls-5" points="76.23 72.08 44.97 40.82 55.48 40.82 76.23 61.57 76.23 72.08"/><path d="M79.34,75.3h-.72V75h1.82v.34h-.72v2.08h-.38ZM80.69,75h.53l.86,2,.85-2h.54v2.42h-.38V75.49l-.83,1.89H81.9l-.82-1.89v1.89h-.39Z" transform="translate(0 0)"/><path d="M95.28,1.15H104a8.69,8.69,0,0,1,3.48.73A6.62,6.62,0,0,1,110.18,4a5.43,5.43,0,0,1,1,3.36,5.61,5.61,0,0,1-.93,3.17,6.35,6.35,0,0,1-2.6,2.21,8.69,8.69,0,0,1-3.77.8H99.65v6.33H95.28Zm8,9a4.48,4.48,0,0,0,1.84-.36,3.13,3.13,0,0,0,1.28-1,2.48,2.48,0,0,0,.46-1.46,2.52,2.52,0,0,0-.45-1.48,3,3,0,0,0-1.26-1,4.4,4.4,0,0,0-1.87-.37H99.65v5.7Z" transform="translate(0 0)"/><path d="M112.87,6.41H116l.6,2.15A4.12,4.12,0,0,1,120.54,6a4,4,0,0,1,2.14.58,4.4,4.4,0,0,1,1.52,1.62,6.07,6.07,0,0,1,.73,2.42l-3.34.92a2.8,2.8,0,0,0-.71-1.8A2.06,2.06,0,0,0,119.3,9a2,2,0,0,0-1.27.45,2.82,2.82,0,0,0-.88,1.24,4.93,4.93,0,0,0-.32,1.8v7.36h-4Z" transform="translate(0 0)"/><path d="M129.57,19.39a6.52,6.52,0,0,1-2.64-2.51,7.3,7.3,0,0,1-1-3.74,7.31,7.31,0,0,1,1-3.75,6.52,6.52,0,0,1,2.64-2.51,8.95,8.95,0,0,1,7.78,0A6.52,6.52,0,0,1,140,9.39a7.3,7.3,0,0,1,.94,3.75,7.29,7.29,0,0,1-.94,3.74,6.52,6.52,0,0,1-2.64,2.51,8.95,8.95,0,0,1-7.78,0m5.71-3a3.19,3.19,0,0,0,1.26-1.34,4.12,4.12,0,0,0,.45-1.95,4.14,4.14,0,0,0-.45-2,3.19,3.19,0,0,0-1.26-1.34,3.61,3.61,0,0,0-3.63,0,3.23,3.23,0,0,0-1.25,1.34,4.14,4.14,0,0,0-.45,2,4.12,4.12,0,0,0,.45,1.95,3.23,3.23,0,0,0,1.25,1.34,3.61,3.61,0,0,0,3.63,0" transform="translate(0 0)"/><path d="M138.75,25.76a4.55,4.55,0,0,1-1.86-1.51l1.76-2.32a2.6,2.6,0,0,0,.94,1,2.48,2.48,0,0,0,1.26.37,1.88,1.88,0,0,0,1-.29,1.85,1.85,0,0,0,.68-.82A2.8,2.8,0,0,0,142.8,21V6.41h3.94V21.65a4.44,4.44,0,0,1-.67,2.43,4.48,4.48,0,0,1-1.87,1.65,6,6,0,0,1-2.74.59,6.44,6.44,0,0,1-2.71-.56M143.1,4a2.19,2.19,0,0,1-.67-1.66A2.18,2.18,0,0,1,143.1.64a2.58,2.58,0,0,1,3.4,0,2.21,2.21,0,0,1,.66,1.65A2.21,2.21,0,0,1,146.5,4a2.55,2.55,0,0,1-3.4,0" transform="translate(0 0)"/><path d="M159.55,6.87A6.05,6.05,0,0,1,162,9.37a7.78,7.78,0,0,1,.86,3.71c0,.18,0,.38,0,.62a5.05,5.05,0,0,1,0,.54H152.7a3.32,3.32,0,0,0,.71,1.65A3.66,3.66,0,0,0,154.9,17a4.92,4.92,0,0,0,2,.38,5.26,5.26,0,0,0,2.3-.5,3.59,3.59,0,0,0,1.56-1.26l2.36,1.68a5.23,5.23,0,0,1-2.54,2.17,9.68,9.68,0,0,1-4.05.83,8.66,8.66,0,0,1-4-.93,7.14,7.14,0,0,1-2.81-2.58,6.93,6.93,0,0,1-1-3.74,7.09,7.09,0,0,1,.93-3.66,6.58,6.58,0,0,1,2.58-2.49A7.74,7.74,0,0,1,155.88,6a7.36,7.36,0,0,1,3.67.88m-5.19,2.39a2.83,2.83,0,0,0-1.08,1,4.52,4.52,0,0,0-.58,1.57h6.1a4.11,4.11,0,0,0-.49-1.53,2.76,2.76,0,0,0-2.48-1.43,3,3,0,0,0-1.47.35" transform="translate(0 0)"/><path d="M167.92,19.37a6.61,6.61,0,0,1-2.65-2.54,7.21,7.21,0,0,1-1-3.7,7.54,7.54,0,0,1,.9-3.7,6.54,6.54,0,0,1,2.5-2.53A7.09,7.09,0,0,1,171.32,6a7.6,7.6,0,0,1,3,.59,6.47,6.47,0,0,1,2.34,1.64,5.13,5.13,0,0,1,1.23,2.42l-3.62.92a3,3,0,0,0-1-1.67,2.88,2.88,0,0,0-3.4-.16,3.28,3.28,0,0,0-1.12,1.38,4.86,4.86,0,0,0-.4,2,4.46,4.46,0,0,0,.45,2A3.56,3.56,0,0,0,170,16.54a3.38,3.38,0,0,0,1.79.48,3.28,3.28,0,0,0,1.57-.38,3.52,3.52,0,0,0,1.23-1,3.32,3.32,0,0,0,.61-1.5l3.68.52a5.8,5.8,0,0,1-1.22,2.92,6.87,6.87,0,0,1-2.56,2,8,8,0,0,1-3.39.72,7.81,7.81,0,0,1-3.77-.91" transform="translate(0 0)"/><path d="M184.06,19.68A4.26,4.26,0,0,1,182.28,18a5.43,5.43,0,0,1-.6-2.63V9.4h-2.57v-3h2.57V2.71l4-.87,0,4.57h5.46v3h-5.46l0,5.34a2.45,2.45,0,0,0,.58,1.72,1.89,1.89,0,0,0,1.49.64,2.68,2.68,0,0,0,1.61-.5,3.86,3.86,0,0,0,1.15-1.42l1.39,2.34a5.5,5.5,0,0,1-2,2.05,5.8,5.8,0,0,1-3,.71,6.19,6.19,0,0,1-2.85-.6" transform="translate(0 0)"/><polygon points="95.28 30.1 98.44 30.1 105.22 46.23 111.99 30.1 115.14 30.1 115.14 48.62 112.96 48.62 112.96 33.25 106.37 48.62 104.06 48.62 97.47 33.28 97.47 48.62 95.28 48.62 95.28 30.1"/><path d="M120.23,48.64a4.31,4.31,0,0,1-1.84-1.41,3.44,3.44,0,0,1-.67-2.08,3.35,3.35,0,0,1,.62-2,4.81,4.81,0,0,1,1.94-1.51,11,11,0,0,1,3.43-.87l3.26-.4a1.35,1.35,0,0,0,.8-.32.92.92,0,0,0,.3-.7,2.11,2.11,0,0,0-.54-1.43,3.57,3.57,0,0,0-1.42-1,5.22,5.22,0,0,0-1.93-.34,4.86,4.86,0,0,0-2.16.46,4.18,4.18,0,0,0-1.53,1.18,2.71,2.71,0,0,0-.61,1.48L118.06,39a3.9,3.9,0,0,1,1-2,5.78,5.78,0,0,1,2.21-1.55,7.86,7.86,0,0,1,3-.57,7.17,7.17,0,0,1,3,.6,4.77,4.77,0,0,1,2,1.71,4.4,4.4,0,0,1,.74,2.55v6.72a1,1,0,0,0,.2.66.62.62,0,0,0,.51.23,1,1,0,0,0,.55-.21,2.25,2.25,0,0,0,.53-.57l1.07,1.26a2.85,2.85,0,0,1-1.17,1,3.29,3.29,0,0,1-1.5.37,2.15,2.15,0,0,1-1.59-.61,2.17,2.17,0,0,1-.62-1.62v-.5a5.12,5.12,0,0,1-3,2.4,6.82,6.82,0,0,1-2.15.33,6.62,6.62,0,0,1-2.67-.5m5.49-1.89a4.18,4.18,0,0,0,2.3-3.81V42l-4.1.5a7.39,7.39,0,0,0-3.23,1,2,2,0,0,0-1,1.65,1.82,1.82,0,0,0,1,1.61,4.88,4.88,0,0,0,2.56.6,5.13,5.13,0,0,0,2.46-.58" transform="translate(0 0)"/><path d="M134.47,35.35h1.81l.18,1.95a4.81,4.81,0,0,1,1.92-1.82,5.51,5.51,0,0,1,2.63-.65,5.41,5.41,0,0,1,2.88.76,5.19,5.19,0,0,1,1.93,2.09,6.5,6.5,0,0,1,.68,3v7.94h-2V40.68a4.63,4.63,0,0,0-.45-2.07,3.38,3.38,0,0,0-1.29-1.43,3.62,3.62,0,0,0-2-.52,4.21,4.21,0,0,0-2.14.57,4.43,4.43,0,0,0-1.58,1.55,4.26,4.26,0,0,0-.59,2.22v7.62h-2Z" transform="translate(0 0)"/><path d="M151.11,48.64a4.31,4.31,0,0,1-1.84-1.41,3.44,3.44,0,0,1-.67-2.08,3.35,3.35,0,0,1,.62-2,4.81,4.81,0,0,1,1.94-1.51,11,11,0,0,1,3.43-.87l3.26-.4a1.35,1.35,0,0,0,.8-.32.92.92,0,0,0,.3-.7,2.11,2.11,0,0,0-.54-1.43A3.6,3.6,0,0,0,157,37a5.31,5.31,0,0,0-1.94-.34,4.89,4.89,0,0,0-2.16.46,4.18,4.18,0,0,0-1.53,1.18,2.8,2.8,0,0,0-.62,1.48L148.94,39a3.9,3.9,0,0,1,1-2,5.78,5.78,0,0,1,2.21-1.55,7.86,7.86,0,0,1,3-.57,7.17,7.17,0,0,1,3,.6,4.8,4.8,0,0,1,2.05,1.71,4.46,4.46,0,0,1,.73,2.55v6.72a1,1,0,0,0,.2.66.62.62,0,0,0,.51.23.93.93,0,0,0,.55-.21,2.09,2.09,0,0,0,.53-.57l1.08,1.26a2.92,2.92,0,0,1-1.17,1,3.36,3.36,0,0,1-1.51.37,2.15,2.15,0,0,1-1.59-.61,2.17,2.17,0,0,1-.62-1.62v-.5a5.12,5.12,0,0,1-3,2.4,6.82,6.82,0,0,1-2.15.33,6.62,6.62,0,0,1-2.67-.5m5.49-1.89a4.18,4.18,0,0,0,2.3-3.81V42l-4.1.5a7.39,7.39,0,0,0-3.23,1,2,2,0,0,0-1,1.65,1.84,1.84,0,0,0,1,1.61,4.88,4.88,0,0,0,2.56.6,5.13,5.13,0,0,0,2.46-.58" transform="translate(0 0)"/><path d="M167.22,54.66a7.91,7.91,0,0,1-2.59-1.47A6.25,6.25,0,0,1,163,51l1.68-1.16a4.35,4.35,0,0,0,1.13,1.83,5.72,5.72,0,0,0,2,1.25,7.25,7.25,0,0,0,2.54.44,5.85,5.85,0,0,0,2.84-.68,4.84,4.84,0,0,0,1.9-1.88,5.43,5.43,0,0,0,.67-2.72V46.3a5.86,5.86,0,0,1-5,2.69,6.5,6.5,0,0,1-3.4-.91,6.41,6.41,0,0,1-2.37-2.5,7.43,7.43,0,0,1-.85-3.58,7.71,7.71,0,0,1,.85-3.65,6.36,6.36,0,0,1,5.77-3.47,5.92,5.92,0,0,1,5.07,2.68l.21-2.21h1.78V48.09a7.14,7.14,0,0,1-.94,3.67,6.71,6.71,0,0,1-2.63,2.52,8,8,0,0,1-3.81.91,9.47,9.47,0,0,1-3.15-.53m6.21-8.16a4.59,4.59,0,0,0,1.75-1.85,5.55,5.55,0,0,0,.63-2.65,5.92,5.92,0,0,0-.63-2.75,4.66,4.66,0,0,0-1.75-1.9,4.61,4.61,0,0,0-2.48-.69,4.71,4.71,0,0,0-4.26,2.59,5.92,5.92,0,0,0-.63,2.75,5.45,5.45,0,0,0,.65,2.65,4.78,4.78,0,0,0,1.74,1.85,5,5,0,0,0,5,0" transform="translate(0 0)"/><path d="M190.22,35.72a6,6,0,0,1,2.27,2.51,8.27,8.27,0,0,1,.84,3.64v.38c0,.13,0,.26,0,.4H182.14a5.27,5.27,0,0,0,.84,2.43,4.92,4.92,0,0,0,1.87,1.66,5.62,5.62,0,0,0,2.57.59,5.52,5.52,0,0,0,2.77-.71,4.35,4.35,0,0,0,1.8-1.81l1.74.71a5.54,5.54,0,0,1-2.41,2.61,7.53,7.53,0,0,1-3.92,1,7.65,7.65,0,0,1-3.78-.93A6.68,6.68,0,0,1,181,45.6a7.55,7.55,0,0,1-.94-3.76,7.42,7.42,0,0,1,.86-3.6,6.42,6.42,0,0,1,2.42-2.51,6.82,6.82,0,0,1,3.49-.9,6.3,6.3,0,0,1,3.38.89m-5.62,1.47a4.31,4.31,0,0,0-1.62,1.5,5.45,5.45,0,0,0-.81,2.2h9a5.6,5.6,0,0,0-.73-2.22,4,4,0,0,0-1.53-1.48,4.28,4.28,0,0,0-2.12-.53,4.61,4.61,0,0,0-2.22.53" transform="translate(0 0)"/><path d="M195.84,35.35h1.73l.21,1.66a4.37,4.37,0,0,1,1.66-1.62,4.59,4.59,0,0,1,2.28-.56,5.56,5.56,0,0,1,2.88.74,4.51,4.51,0,0,1,1.83,2,4.88,4.88,0,0,1,1.85-2,5.11,5.11,0,0,1,2.74-.74,5,5,0,0,1,2.73.75,5.17,5.17,0,0,1,1.9,2.08,6.5,6.5,0,0,1,.68,3v7.94h-2v-8a4.6,4.6,0,0,0-.45-2,3.42,3.42,0,0,0-1.25-1.43,3.23,3.23,0,0,0-1.82-.52,3.81,3.81,0,0,0-1.94.5,3.48,3.48,0,0,0-1.32,1.44,4.43,4.43,0,0,0-.47,2.06v8h-2v-8a4.76,4.76,0,0,0-.44-2.09,3.26,3.26,0,0,0-1.23-1.41,3.44,3.44,0,0,0-1.85-.5,3.8,3.8,0,0,0-1.95.5,3.41,3.41,0,0,0-1.3,1.41,4.63,4.63,0,0,0-.45,2.09v8h-2Z" transform="translate(0 0)"/><path d="M228.65,35.72a6.1,6.1,0,0,1,2.28,2.51,8.13,8.13,0,0,1,.83,3.64v.38a2.75,2.75,0,0,1,0,.4H220.57a5.27,5.27,0,0,0,.84,2.43,5,5,0,0,0,1.87,1.66,5.63,5.63,0,0,0,2.58.59,5.57,5.57,0,0,0,2.77-.71,4.35,4.35,0,0,0,1.8-1.81l1.73.71a5.57,5.57,0,0,1-2.4,2.61,8.13,8.13,0,0,1-7.7.08,6.68,6.68,0,0,1-2.61-2.61,7.9,7.9,0,0,1-.08-7.36,6.33,6.33,0,0,1,2.41-2.51,6.86,6.86,0,0,1,3.5-.9,6.26,6.26,0,0,1,3.37.89M223,37.19a4.39,4.39,0,0,0-1.62,1.5,5.45,5.45,0,0,0-.81,2.2h9a5.61,5.61,0,0,0-.74-2.22,4,4,0,0,0-1.52-1.48,4.31,4.31,0,0,0-2.13-.53,4.67,4.67,0,0,0-2.22.53" transform="translate(0 0)"/><path d="M234.27,35.35h1.81l.19,1.95a4.69,4.69,0,0,1,1.92-1.82,5.44,5.44,0,0,1,2.62-.65,5.39,5.39,0,0,1,2.88.76,5.12,5.12,0,0,1,1.93,2.09,6.37,6.37,0,0,1,.68,3v7.94h-2V40.68a4.76,4.76,0,0,0-.44-2.07,3.38,3.38,0,0,0-1.29-1.43,3.64,3.64,0,0,0-2-.52,4.18,4.18,0,0,0-2.14.57A4.26,4.26,0,0,0,236.27,41v7.62h-2Z" transform="translate(0 0)"/><path d="M252.36,48.62a3.8,3.8,0,0,1-1.49-1.46,4.24,4.24,0,0,1-.52-2.12V37h-2.92V35.35h2.92V31.41l2-.47v4.41h5.93V37h-5.93v7.82a2.68,2.68,0,0,0,.64,1.86,2.19,2.19,0,0,0,1.72.72,2.71,2.71,0,0,0,1.84-.72,3.15,3.15,0,0,0,1-2l1.63.68a4.14,4.14,0,0,1-1.59,2.71,4.9,4.9,0,0,1-3.06,1,4.44,4.44,0,0,1-2.17-.52" transform="translate(0 0)"/><rect x="95.28" y="58.86" width="2.18" height="18.52"/><path d="M100.7,64.11h1.82l.18,1.94a4.86,4.86,0,0,1,1.92-1.81,5.69,5.69,0,0,1,5.5.1,5.19,5.19,0,0,1,1.93,2.09,6.45,6.45,0,0,1,.69,3v7.94h-2V69.44a4.76,4.76,0,0,0-.44-2.07A3.4,3.4,0,0,0,109,65.93a3.73,3.73,0,0,0-2-.51,4.18,4.18,0,0,0-2.14.57,4.26,4.26,0,0,0-2.17,3.77v7.62h-2Z" transform="translate(0 0)"/><path d="M117.9,77.31a6,6,0,0,1-2.23-1.62,4.47,4.47,0,0,1-1-2.33l2-.4a3,3,0,0,0,.65,1.62,3.76,3.76,0,0,0,1.54,1.11,5.38,5.38,0,0,0,2.12.4,5.2,5.2,0,0,0,1.87-.31,3.1,3.1,0,0,0,1.32-.84,1.72,1.72,0,0,0,.48-1.19,1.39,1.39,0,0,0-.52-1.12,3.58,3.58,0,0,0-1.31-.65c-.53-.15-1.21-.31-2-.46a23.33,23.33,0,0,1-2.81-.66,4.3,4.3,0,0,1-1.83-1.12,3,3,0,0,1-.74-2.14,3.51,3.51,0,0,1,.64-2,4.41,4.41,0,0,1,1.76-1.44,5.81,5.81,0,0,1,2.51-.53,6.37,6.37,0,0,1,2.5.48,5.13,5.13,0,0,1,1.87,1.29,4.18,4.18,0,0,1,1,1.88l-1.92.53A2.44,2.44,0,0,0,122.59,66a4,4,0,0,0-2.38-.69,3.59,3.59,0,0,0-1.48.3,2.88,2.88,0,0,0-1.07.82,1.83,1.83,0,0,0-.39,1.14,1.26,1.26,0,0,0,.54,1.08,3.07,3.07,0,0,0,.93.5c.26.07,1.09.23,2.47.47a18.43,18.43,0,0,1,2.72.72,4.84,4.84,0,0,1,1.85,1.19,2.78,2.78,0,0,1,.74,2,3.59,3.59,0,0,1-.74,2.21,5,5,0,0,1-2,1.56,7.13,7.13,0,0,1-2.87.56,7.54,7.54,0,0,1-3-.59" transform="translate(0 0)"/><path d="M132,77.37a3.71,3.71,0,0,1-1.49-1.45A4.35,4.35,0,0,1,130,73.8v-8h-2.92V64.11H130V60.17l2-.48v4.42h5.93v1.65H132v7.83a2.65,2.65,0,0,0,.64,1.85,2.17,2.17,0,0,0,1.72.73,2.65,2.65,0,0,0,1.84-.73,3.12,3.12,0,0,0,1-2l1.63.68a4.16,4.16,0,0,1-1.59,2.71,4.9,4.9,0,0,1-3.06,1,4.44,4.44,0,0,1-2.17-.53" transform="translate(0 0)"/><path d="M140.43,61.2a1.45,1.45,0,0,1,1.06-2.5,1.49,1.49,0,0,1,1.08.4,1.52,1.52,0,0,1,0,2.1,1.45,1.45,0,0,1-1.08.41,1.41,1.41,0,0,1-1.06-.41m0,2.91h2V77.38h-2Z" transform="translate(0 0)"/><path d="M149.08,77.37a3.65,3.65,0,0,1-1.49-1.45,4.24,4.24,0,0,1-.52-2.12v-8h-2.92V64.11h2.92V60.17l2-.48v4.42H155v1.65h-5.94v7.83a2.66,2.66,0,0,0,.65,1.85,2.15,2.15,0,0,0,1.72.73,2.69,2.69,0,0,0,1.84-.73,3.17,3.17,0,0,0,1-2l1.62.68a4.08,4.08,0,0,1-1.59,2.71,4.86,4.86,0,0,1-3.06,1,4.4,4.4,0,0,1-2.16-.53" transform="translate(0 0)"/><path d="M160,77.15A5,5,0,0,1,158,75.08a6.52,6.52,0,0,1-.69-3V64.11h2V72a4.5,4.5,0,0,0,.46,2.09,3.59,3.59,0,0,0,1.3,1.43,3.65,3.65,0,0,0,2,.53,4.19,4.19,0,0,0,2.12-.57A4.24,4.24,0,0,0,166.77,74a4.14,4.14,0,0,0,.59-2.22V64.11h2V77.37h-1.82l-.21-1.94a4.49,4.49,0,0,1-1.9,1.81,5.54,5.54,0,0,1-2.62.66,5.46,5.46,0,0,1-2.87-.75" transform="translate(0 0)"/><path d="M175.89,77.37a3.63,3.63,0,0,1-1.48-1.45,4.25,4.25,0,0,1-.53-2.12v-8H171V64.11h2.92V60.17l2-.48v4.42h5.94v1.65h-5.94v7.83a2.65,2.65,0,0,0,.64,1.85,2.17,2.17,0,0,0,1.72.73,2.65,2.65,0,0,0,1.84-.73,3.12,3.12,0,0,0,1-2l1.63.68a4.16,4.16,0,0,1-1.59,2.71,4.9,4.9,0,0,1-3.06,1,4.44,4.44,0,0,1-2.17-.53" transform="translate(0 0)"/><path d="M193.93,64.48A6,6,0,0,1,196.2,67a8.06,8.06,0,0,1,.84,3.64V71c0,.13,0,.27,0,.41H185.85a5.27,5.27,0,0,0,.84,2.43,4.92,4.92,0,0,0,1.87,1.66,5.84,5.84,0,0,0,5.35-.12,4.33,4.33,0,0,0,1.79-1.81l1.74.71A5.64,5.64,0,0,1,195,76.89a8.11,8.11,0,0,1-7.69.08,6.6,6.6,0,0,1-2.62-2.62,8,8,0,0,1-.08-7.35,6.35,6.35,0,0,1,2.42-2.51,6.73,6.73,0,0,1,3.49-.91,6.3,6.3,0,0,1,3.38.9M188.31,66a4.37,4.37,0,0,0-1.62,1.49,5.49,5.49,0,0,0-.81,2.21h9a5.44,5.44,0,0,0-.73-2.22A4.07,4.07,0,0,0,192.66,66a4.31,4.31,0,0,0-2.13-.53,4.64,4.64,0,0,0-2.22.53" transform="translate(0 0)"/><path d="M199.87,77.66a1.78,1.78,0,0,1-.68-.68,1.91,1.91,0,0,1-.25-1,2,2,0,0,1,.25-1,1.85,1.85,0,0,1,.68-.68,1.91,1.91,0,0,1,1-.25,1.88,1.88,0,0,1,1,.25,1.85,1.85,0,0,1,.68.68,2.12,2.12,0,0,1,0,2,1.93,1.93,0,0,1-.68.68,2,2,0,0,1-1,.24,2,2,0,0,1-1-.24m1.86-.17a1.62,1.62,0,0,0,.61-.61,1.71,1.71,0,0,0,.22-.87,1.75,1.75,0,0,0-.22-.89,1.65,1.65,0,0,0-.61-.62,1.71,1.71,0,0,0-.87-.22,1.75,1.75,0,0,0-.89.22,1.68,1.68,0,0,0-.62.62,1.86,1.86,0,0,0-.22.89,1.81,1.81,0,0,0,.22.87,1.65,1.65,0,0,0,.62.61,1.75,1.75,0,0,0,.89.22,1.71,1.71,0,0,0,.87-.22" transform="translate(0 0)"/><path d="M201.82,77.21l-.59-1,.19-.07a.64.64,0,0,0,.28-.26.65.65,0,0,0,.1-.36v0a.7.7,0,0,0-.09-.35.78.78,0,0,0-.27-.24.86.86,0,0,0-.39-.09h-1v2.43h.36v-1h.45l.58,1Zm-1.43-1.33v-.8h.53a.63.63,0,0,1,.38.11.34.34,0,0,1,.14.3.33.33,0,0,1-.14.29.57.57,0,0,1-.36.1Z" transform="translate(0 0)"/></g></g></g></svg>