<svg xmlns="http://www.w3.org/2000/svg" xmlns:xlink="http://www.w3.org/1999/xlink" viewBox="0 0 72 87.9"><defs><style>.cls-1{fill:none;}.cls-2{clip-path:url(#clip-path);}.cls-3{fill:#f6a428;}.cls-4{fill:#221e20;}.cls-5{fill:#fff;}.cls-6{fill:#cccbcb;}.cls-7{fill:#a5a4a5;}</style><clipPath id="clip-path" transform="translate(0 0)"><rect class="cls-1" width="72" height="87.9"/></clipPath></defs><title>Unity_CU_ribbon</title><g id="Capa_2" data-name="Capa 2"><g id="Capa_1-2" data-name="Capa 1"><g class="cls-2"><path class="cls-3" d="M72,53.5V27.92H0V63a7.25,7.25,0,0,0,4.53,6.7L34.14,87.27a4.2,4.2,0,0,0,2.22.63h0a4.23,4.23,0,0,0,2.17-.6L61.89,73.21l6.68-4.06A7.32,7.32,0,0,0,71.93,64L72,63Z" transform="translate(0 0)"/><path class="cls-4" d="M64.77,0H7.23A7.25,7.25,0,0,0,0,7.23V27.92H72V7.23A7.25,7.25,0,0,0,64.77,0" transform="translate(0 0)"/><path class="cls-5" d="M32.45,14.7V10.56h1.67v4.22c0,.7.36,1.15,1.23,1.15a1.2,1.2,0,0,0,1.35-1.18V10.56h1.67v4.16c0,1.62-1,2.61-2.95,2.61s-3-1-3-2.63" transform="translate(0 0)"/><path class="cls-5" d="M39.28,12.08h1.51v.76h0A1.77,1.77,0,0,1,42.38,12a1.72,1.72,0,0,1,1.75,1.92v3.31H42.61v-3c-.07-.53-.33-.9-.86-.9a.84.84,0,0,0-.81,1.06v2.87H39.28Z" transform="translate(0 0)"/><path class="cls-5" d="M44.89,10.11h1.67v1.36H44.89Zm0,2h1.67v5.16H44.89Z" transform="translate(0 0)"/><path class="cls-5" d="M47.92,15.84v-2.4h-.76V12.08h.76V10.56h1.52v1.52h.91v1.36h-.91v2.07c0,.39.21.48.56.48h.35v1.14a3.2,3.2,0,0,1-.87.07c-.91,0-1.56-.29-1.56-1.35" transform="translate(0 0)"/><path class="cls-5" d="M51.26,17.54h.54c.47,0,.67-.18.67-.53a3.59,3.59,0,0,0-.3-1.05l-1.49-3.88h1.75l.68,2.17c.15.5.32,1.17.32,1.17h0s.15-.69.31-1.17l.66-2.17h1.52L54.2,17.16c-.39,1.17-.88,1.59-1.89,1.59H51.26Z" transform="translate(0 0)"/><path class="cls-6" d="M29.13,10.15,23.2,6.68V9.12l2.2,1.41c.1.06.12.17,0,.21l-2.73,1.6a.26.26,0,0,1-.21,0l-2.68-1.58a.16.16,0,0,1,0-.27L22,9.12V6.68l-5.91,3.47V17l2.27-1.26V13a.16.16,0,0,1,.25-.13l2.7,1.57a.2.2,0,0,1,.09.19v3.22c0,.12-.09.15-.2.09L19,16.71,16.69,18l5.9,3.28L28.49,18l-2.27-1.25L24,18c-.09.06-.2,0-.2-.08V14.67a.19.19,0,0,1,.1-.19l2.71-1.57a.15.15,0,0,1,.24.13v2.65L29.13,17Z" transform="translate(0 0)"/><path class="cls-6" d="M22.59,13.85v7.39L16.69,18,19,16.71,21.18,18c.11.06.2,0,.2-.09V14.67a.2.2,0,0,0-.09-.19l-2.7-1.57a.16.16,0,0,0-.25.13v2.65L16.07,17v-6.8Z" transform="translate(0 0)"/><path class="cls-7" d="M22.59,13.85v7.39L28.49,18l-2.27-1.25L24,18c-.09.06-.2,0-.2-.08V14.67a.2.2,0,0,1,.09-.19l2.72-1.57a.15.15,0,0,1,.24.13v2.65L29.13,17v-6.8Z" transform="translate(0 0)"/><path class="cls-5" d="M22.59,13.85l6.54-3.7L23.2,6.68V9.12l2.2,1.41c.1.06.12.17,0,.22l-2.73,1.59a.26.26,0,0,1-.21,0l-2.69-1.58a.16.16,0,0,1,0-.27L22,9.12V6.68l-5.91,3.47Z" transform="translate(0 0)"/></g><path class="cls-5" d="M20.47,43.23h-.74a1.1,1.1,0,0,0-.45-.73,1.35,1.35,0,0,0-.82-.25,1.43,1.43,0,0,0-.76.21,1.46,1.46,0,0,0-.52.62,2.36,2.36,0,0,0-.2,1,2.28,2.28,0,0,0,.2,1,1.33,1.33,0,0,0,1.28.84,1.44,1.44,0,0,0,.82-.25,1.18,1.18,0,0,0,.45-.72h.74a1.89,1.89,0,0,1-1,1.43,2.19,2.19,0,0,1-1,.21,2.15,2.15,0,0,1-1.13-.3,2.07,2.07,0,0,1-.78-.87,2.91,2.91,0,0,1-.29-1.34,3,3,0,0,1,.29-1.35,2.1,2.1,0,0,1,.78-.86,2.06,2.06,0,0,1,1.13-.31,2.28,2.28,0,0,1,.95.2,1.87,1.87,0,0,1,.71.57A1.93,1.93,0,0,1,20.47,43.23Z" transform="translate(0 0)"/><path class="cls-5" d="M22,46.53V41.64h3.07v.64H22.76v1.49h2.17v.63H22.76v1.5h2.36v.63Z" transform="translate(0 0)"/><path class="cls-5" d="M26.75,46.53V41.64H28.5a2,2,0,0,1,.94.2,1.27,1.27,0,0,1,.56.54,1.57,1.57,0,0,1,.19.79A1.6,1.6,0,0,1,30,44a1.29,1.29,0,0,1-.68.52l1.09,2h-.84l-1-1.85H27.49v1.85Zm.74-2.48h.94a1.12,1.12,0,0,0,.78-.23.87.87,0,0,0,.24-.65.88.88,0,0,0-.24-.65,1.06,1.06,0,0,0-.79-.25h-.93Z" transform="translate(0 0)"/><path class="cls-5" d="M31.52,42.28v-.64h3.79v.64H33.78v4.25h-.73V42.28Z" transform="translate(0 0)"/><path class="cls-5" d="M37.56,41.64v4.89h-.74V41.64Z" transform="translate(0 0)"/><path class="cls-5" d="M39.3,46.53V41.64h3v.64H40v1.49h2.08v.63H40v2.13Z" transform="translate(0 0)"/><path class="cls-5" d="M44.65,41.64v4.89h-.74V41.64Z" transform="translate(0 0)"/><path class="cls-5" d="M46.39,46.53V41.64h3.07v.64H47.13v1.49H49.3v.63H47.13v1.5h2.36v.63Z" transform="translate(0 0)"/><path class="cls-5" d="M52.7,46.53H51.12V41.64h1.64a2.49,2.49,0,0,1,1.23.29,2,2,0,0,1,.79.84,3.2,3.2,0,0,1,0,2.62,1.93,1.93,0,0,1-.8.85A2.55,2.55,0,0,1,52.7,46.53Zm-.84-.64h.8a1.61,1.61,0,0,0,1.26-.47,2,2,0,0,0,.41-1.34,1.91,1.91,0,0,0-.41-1.33,1.53,1.53,0,0,0-1.21-.46h-.85Z" transform="translate(0 0)"/><path class="cls-5" d="M29.54,50.57h1.51v4.75a2.3,2.3,0,0,1-1.43,2.23,4.13,4.13,0,0,1-3.09,0,2.29,2.29,0,0,1-1.05-.86,2.4,2.4,0,0,1-.38-1.37V50.57h1.52v4.69a1.11,1.11,0,0,0,.41.91,1.84,1.84,0,0,0,2.1,0,1.11,1.11,0,0,0,.41-.91Z" transform="translate(0 0)"/><path class="cls-5" d="M36.65,53.9,35.28,54a.73.73,0,0,0-.28-.44.92.92,0,0,0-.62-.19,1.06,1.06,0,0,0-.58.15.44.44,0,0,0-.24.39.42.42,0,0,0,.15.32,1.27,1.27,0,0,0,.53.22l1,.19c1,.21,1.55.7,1.55,1.46a1.47,1.47,0,0,1-.31.93,2,2,0,0,1-.85.62,3.17,3.17,0,0,1-1.23.22,3,3,0,0,1-1.71-.44,1.74,1.74,0,0,1-.74-1.22l1.47-.08a.8.8,0,0,0,.32.5,1.2,1.2,0,0,0,.66.17,1.09,1.09,0,0,0,.63-.16.48.48,0,0,0,.25-.39c0-.27-.24-.45-.7-.54l-.93-.18c-1-.21-1.56-.72-1.55-1.54a1.4,1.4,0,0,1,.62-1.23,2.79,2.79,0,0,1,1.66-.45,2.62,2.62,0,0,1,1.6.44A1.63,1.63,0,0,1,36.65,53.9Z" transform="translate(0 0)"/><path class="cls-5" d="M40.08,57.85a2.83,2.83,0,0,1-1.43-.34,2.25,2.25,0,0,1-.92-1,3.19,3.19,0,0,1-.32-1.47,3.23,3.23,0,0,1,.32-1.46,2.37,2.37,0,0,1,.91-1A2.58,2.58,0,0,1,40,52.29a2.72,2.72,0,0,1,1.28.31,2.1,2.1,0,0,1,.91.91A3,3,0,0,1,42.55,55v.41H38.88a1.32,1.32,0,0,0,.33,1,1.18,1.18,0,0,0,.89.35,1.23,1.23,0,0,0,.65-.16.87.87,0,0,0,.39-.47l1.38.1a1.89,1.89,0,0,1-.8,1.19A2.81,2.81,0,0,1,40.08,57.85Zm-1.2-3.34h2.26a1.09,1.09,0,0,0-.3-.79,1.07,1.07,0,0,0-.8-.31,1.1,1.1,0,0,0-.81.32A1.22,1.22,0,0,0,38.88,54.51Z" transform="translate(0 0)"/><path class="cls-5" d="M43.43,57.75V52.36h1.45v.94h.06a1.4,1.4,0,0,1,.49-.75,1.43,1.43,0,0,1,1.2-.21,1.51,1.51,0,0,1,.34.14l-.45,1.24a.92.92,0,0,0-.23-.09.82.82,0,0,0-.28,0,1,1,0,0,0-.77.31,1.11,1.11,0,0,0-.31.8v3Z" transform="translate(0 0)"/></g></g></svg>